<svg version="1" xmlns="http://www.w3.org/2000/svg" width="686.667" height="686.667" viewBox="0 0 515.000000 515.000000"><path d="M153.5 3.1c-21 2.8-47.1 14.1-63.8 27.6-17.4 14-31.6 39.5-36.3 65.3-2.5 13.1-3 41.4-1 53 4.9 27.8 20.2 57.1 39.5 75.2 13.3 12.6 22.5 17.4 50.5 26.5 23.1 7.5 32 11.2 33.5 14.1 1.6 3 1.3 16-.4 22-1.2 4.1-2 5.2-3.6 5.2-3.4 0-5.7-1.8-9.3-7.5-4.4-6.7-6.5-7.9-13.1-7.2-5.3.5-10.8 3-25 11.1-9 5.2-12 5.6-17.3 2.2-2.1-1.3-7.1-4-11.2-6.1-11.3-5.7-14.8-8.4-17.6-13.5-1.4-2.6-3.7-5.3-5-5.9-7.9-3.6-19.9 1.1-25 9.7-4.1 6.7-5 13.6-3 22.9 2.7 13 6 17.3 18.6 23.8 4.8 2.6 7.6 4.9 9.6 7.8 5.2 7.9 7.4 9.7 11.6 9.7 2.1 0 7.2-1 11.3-2.2 6.7-2 8-2.1 11.8-.9 15.5 4.7 14.9 4.6 22.3 2.8 3.8-1 12.5-4.4 19.4-7.7 6.9-3.2 13.9-6 15.5-6.2 2.8-.3 3.1.1 4.7 4.7 6.1 17.8-3.6 51.9-22.5 79.3-4.1 5.9-8.2 12.2-9.1 14.1-3.3 6.2-3.7 14.2-2 40.6 1.6 27.4 3.5 41.3 6.2 46 1.7 2.9 2.1 3 11.3 3.8 5.1.4 39.5.6 76.4.4 54.7-.4 69-.7 77.9-2 13.5-2 21.7-4.7 27.9-9.2 5.8-4.3 5.6-1.2 1.7-43-1.7-17.6-3.3-39.2-3.7-48.1-.7-18-1.2-16.7 7.5-21.2 3.9-2 7.1-5 12.5-11.6 4.2-5.2 9.2-10.2 12.1-12 2.7-1.7 6.6-4.7 8.7-6.7 4.7-4.4 4.9-6.9 1.7-19.6-1.9-7.8-2-9.4-1-15.5 1.7-9.8 1.5-15.8-.7-19.8-3-5.6-6.5-7.1-19.8-8-6.5-.5-11.9-.9-12-.9-.2-.1-2-1.6-4-3.5-7.5-6.7-11.2-8.6-16.7-8.6-7.2.1-12.6 2.9-20.8 10.7l-7 6.8-20.8.4-20.9.3-2-3.3c-1.1-1.9-2.6-5.8-3.3-8.7-3.9-17.8 12.7-32.2 50.7-43.7 6.1-1.8 24.6-6.7 41.1-10.9 16.6-4.1 33.9-8.7 38.5-10.2 18.1-5.7 32.1-14.7 41.6-26.8 8.4-10.5 13.5-15.6 15.7-15.6 1.1 0 4.5.5 7.6 1.2 5.2 1 6 .9 11.1-1.4 16-7.3 21.6-21.2 14.4-35.3-4.3-8.4-8.8-11.3-19.9-13-4.8-.7-8.8-1.4-9-1.6-.2-.2-2.4-4.8-5-10.2-15.1-32.4-40.9-49.6-84.4-56.1-5.6-.8-10.9-1.9-12-2.5-1-.5-4.2-5.4-7.1-10.8-3-5.4-7.4-12.9-9.9-16.7-13.6-20.5-34.2-24.3-64-12-4.6 1.9-8.7 3.2-9.3 2.9-.5-.4-4.6-3.4-9.2-6.8-9.2-7-22.2-13.7-31.2-16.2-7.2-1.9-43-2.9-54-1.4zM200 15.4c16.1 2.5 28.5 7.5 37.9 15.4 3.3 2.8 3.4 3.1 2.2 6-.7 1.7-2.2 3.9-3.3 4.9-3.5 3.2-6.5 10.5-10.8 26.4-4.6 17.5-6.8 24.1-8.4 25.1-.6.4-4.7.8-9.1.8-4.4 0-12.7.7-18.5 1.6-6 1-12.1 1.4-14.2 1-2.2-.4-7.6-3.6-13.7-8-12.3-9-17.2-10.6-25.3-8.2-10.5 3.2-18.2 11.1-23.7 24.4-4.6 11.1-5.6 16.6-5.4 30.2.3 23.8 7.2 40.1 20.2 47.8 4.1 2.4 5.6 2.7 13.6 2.7 8.2 0 9.7-.3 15.6-3.2 17.2-8.5 25.4-21.5 26.8-43 .9-13.6 1.9-15.3 9-15.3 2.5 0 7.3.7 10.6 1.5 10.3 2.5 13.6 2 19.3-2.5 2.8-2.1 5.3-4.4 5.7-5 1.2-1.9 8.6-5.1 10.4-4.5 1 .3 2.6 1.4 3.6 2.5 1.6 1.8 1.7 2.6.6 7.3-1.2 5.3-2.8 8.7-19.3 40.7-15.1 29.5-19.4 43.8-18.6 62.3.9 20.5 7.1 29.1 24.9 34.7 7.5 2.3 9.9 4.3 9.9 8.5 0 4.3-1.6 4.6-14.8 3.5-11.3-1-11.8-.9-29 5.9-6 2.4-5.5 2.9-7.7-7.6-3.6-17.8-8.6-22.5-35.8-34-27.2-11.5-38-18.5-54.3-35.4-25.5-26.4-38.7-67.2-32.9-102.4 3.6-22.2 13-40.1 29.2-55.6 17-16.2 37.9-26.6 58.8-29.2 8.2-1.1 37.8-.6 46.5.7zm97.4 14c8.5 4.1 18.7 12.9 21.7 18.8 4.2 8.3 4.1 22.6-.2 31.3-3.4 6.7-11.9 15.7-19.6 20.5-20.9 13.2-45 12.9-60.4-.9l-4.4-3.9.1-15.3c0-13.9.3-16.1 2.6-22.7 4.8-13.3 12.9-23.1 23.3-27.8 7.4-3.4 12.7-4.4 21.7-4 6.3.3 9 1 15.2 4zm59.1 49.1c34.3 8.7 59.3 24.2 68.5 42.5 8.1 16 8.3 37.6.6 52.8-3.5 6.8-7.1 11-16.6 19.2-6.4 5.5-11.2 8.5-20.8 13.1-18.3 8.7-25.7 11.1-67.6 21.5-41.4 10.3-45.7 11.9-62.6 22.7-5.6 3.7-11.8 7-13.7 7.3-6.1 1.1-11.1-1.2-18.3-8.5-7.8-7.7-9.9-12.6-10.7-24.6-1.3-18.9 7.1-46.4 22.3-73.5 4.1-7.4 9.3-17.2 11.4-21.7 4.4-9.4 3.4-8.9 19.5-9.7 26.8-1.3 39.5-9.1 55.9-34l7.7-11.7 5.7.6c3.1.4 11.6 2.2 18.7 4zM153.8 94.6c11.2 4.6 18.2 20 18.2 39.8-.1 20.6-6.6 35.8-17.5 40.7-5.4 2.5-15.7 2.5-21.1 0-5.7-2.6-11.1-9.3-13.4-16.9-4.1-13.3-3.6-34.3 1.2-47.1 2.5-6.6 10.5-15.1 15.8-16.8 5.2-1.6 12.6-1.5 16.8.3zm68.8 13.1c-.8 1.6-2.5 3.8-3.8 5-2.3 2.1-2.4 2.1-19.6.8-9.5-.7-17.4-1.4-17.6-1.6-.9-1 1.6-5.1 3.6-5.9 1.3-.5 10.5-.9 20.6-.9l18.3-.1-1.5 2.7zM72.4 274.2c.8 1.3 1.8 3.6 2.2 5.3.3 1.6 1.5 5.1 2.6 7.6l1.9 4.6 9.2.9 9.2.9.3 6.9.3 6.9 6.2-.6c8.4-.8 13.1-2.6 27.7-10.7 20.2-11.2 21.7-11.3 27.7-2.2l3.8 5.7 5.8.3c3.4.2 5.7.8 5.7 1.4 0 2.5-5.6 9.1-10.8 12.9-5.8 4.1-21.8 10.8-31.7 13.2-13.1 3.2-15.1 2.9-10-1.5 7.3-6.3-1.2-6.4-17.2-.2-7.8 3-13.5 4.7-16.8 4.8l-5 .1-2.5-5.3c-2.3-4.7-3.6-6-10-9.9-9.9-6-13.6-9.7-15.6-15.5-4.1-12.4.6-23.6 11.3-26.8 4.1-1.2 4.1-1.2 5.7 1.2zm152.9 6c6.5 2 10 6.3 13.8 17.4 5 14.2 4.5 14 27.7 13.6 19.8-.2 28.7.9 28.7 3.8 0 2.1-7.8 4.7-18.1 6.1-9.2 1.2-42.5.8-45.6-.6-2.5-1-2.2-4.3.7-9 1.4-2.2 2.5-4.6 2.5-5.3 0-3.1-6.5-4.2-24.4-4.2-19.6 0-22.6-.6-22.6-4.6 0-11.6 22-21.8 37.3-17.2zm97.8 20.1c1.9 1.2 3.7 3.4 4 4.7 2.2 7.9 2.5 8.5 4.6 8.8 1.2.2 4.5-.9 7.4-2.4 7.3-3.7 12.4-3.7 15.5-.1 2.1 2.4 2.4 3.8 2.4 10.2v7.3l5.7 4.9c8.4 7.2 10.6 14.5 6 19.9-2 2.3-3.2 2.7-9.8 3.1-4 .3-8.4 1.2-9.7 1.9-2.1 1.4-2.2 1.9-1.6 7.9l.7 6.5-4.5 4.5c-6.5 6.5-9 6.2-16.6-1.5-6.8-6.8-9.1-7.4-15.8-3.8-4 2.1-4.3 2.1-6.7.5-1.4-.9-5.3-5.3-8.7-9.7-7.2-9.5-13.8-14.2-22.8-16.5-7.7-2-12.5-1.4-20.8 2.6-14.9 7.1-29.5 31.3-32 52.7-.3 3.2-.1 12.9.5 21.3 1.3 16.3.7 22.8-2.3 25.8-1.2 1.2-5 1.7-16.6 2.2-19.6.9-25.7 2.9-23.1 7.7 1.6 3.1 6.5 4.2 17.7 4.2 5.7 0 13.2.7 16.8 1.5 6.5 1.5 9.4 1.4 14.9-.7 2.3-.9 2.7-1.5 2.3-3.7-2.2-11.2-3.1-24.5-3-43.6 0-19.3.3-23 2.2-29.8 7.9-28.6 25.1-40.9 44-31.3 6.2 3.1 12.6 10.3 14.6 16.3 2.9 8.4 2.7 8.6-7.4 11.2-10.8 2.8-18.5 6.2-19.9 8.9-2.5 4.8 3.9 4.3 15.3-1.2 5-2.4 10.6-4.6 12.3-4.9 2.8-.6 3.6-.2 5.7 2.6 7.7 10.4 15.9 38.2 18.7 64.2 2 19.1-.3 45.1-4.2 47.6-6.2 4-28.4 5.2-81.7 4.5-25.2-.4-47.7-.8-50.2-.8-2.5-.1-7.3.2-10.7.7-5.2.6-6.7.5-8.9-.9-6-4-10-19.5-11.3-44.3-.9-16.7-.1-26.5 2.8-32.1 1.1-2.1 5.1-7.8 9-12.7 7.5-9.4 17.9-29 22.1-41.5 3.9-11.3 3.8-17.8-.4-30.2-3.9-11.5-4.2-13.8-2.5-18.6 2.1-6 8.1-6.4 24.2-1.6 14.8 4.4 28.9 5.6 67.7 5.8 19.5 0 36.7-.2 38.2-.7 4-1.1 4.3-4.2 1.4-12.7-3.1-8.7-3.2-11.1-.8-13.3 4.5-4.1 10.5-4.7 15.3-1.4zm-96.1 8.1c0 4.9-9.4 9.6-19.3 9.6-4.7 0-11.7-2.4-11.7-4 0-3.2 14.7-7.8 25.3-7.9 5.4-.1 5.7 0 5.7 2.3zm95.8 91.5c2.5 5.6 5.7 21 7.1 34.1 1.5 13 2.6 45.7 1.7 50.4-.7 3.5-.9 3.7-3.4 3.1-1.5-.3-3.2-1.3-3.8-2.1-.6-.7-1.4-6.5-1.8-12.6-.4-6.2-1.8-21.9-3.1-34.8-3.1-30.6-3.9-41.3-3-44 .6-2 .8-2 2.5-.5 1 .9 2.7 3.8 3.8 6.4z"/><path d="M268.2 42.1c-11.4 5.6-19.1 17.5-20 30.5-.5 8.7.8 13.3 5.5 18.5 11.6 12.8 42.1 6.2 50.4-10.9 3.2-6.4 3.2-17.5 0-24.7-6.6-15-21.6-20.6-35.9-13.4zM283.1 420.8c-4.3 2.2-6 4.7-4.3 6.4 1.3 1.3 22.5 1.8 23.8.6 1.4-1.5-1.6-5.9-5.1-7.4-4.6-1.9-10.3-1.8-14.4.4z"/></svg>